<?xml version="1.0"?>
<svg xmlns="http://www.w3.org/2000/svg" id="Layer_1" data-name="Layer 1" viewBox="0 0 512 512" width="512" height="512"><title>papers</title><path d="M430.023,102.169a17.04,17.04,0,0,0-1.866-2.29l-69.549-71.16a17,17,0,0,0-5.39-3.695A6.968,6.968,0,0,0,349,23.6a7.332,7.332,0,0,0-1,.278c-.515-.048-1.031.12-1.551.12H152a16.683,16.683,0,0,0-17,16.6V54H122a16.778,16.778,0,0,0-17,16.715V78H95A16.853,16.853,0,0,0,78,94.805V482.332A16.738,16.738,0,0,0,95,499H360a16.738,16.738,0,0,0,17-16.668V474h10a16.818,16.818,0,0,0,17-16.763V446h12a16.907,16.907,0,0,0,17-16.868V111.761a17.1,17.1,0,0,0-.177-2.325,6.959,6.959,0,0,0-2.8-7.267ZM409.571,101H359a3.1,3.1,0,0,1-3-3.108V46.079ZM363,482.332A2.738,2.738,0,0,1,360,485H95a2.738,2.738,0,0,1-3-2.668V94.805A2.843,2.843,0,0,1,95,92h10V457.237A16.818,16.818,0,0,0,122,474H363Zm27-25.095A2.81,2.81,0,0,1,387,460H122a2.81,2.81,0,0,1-3-2.763V70.715A2.773,2.773,0,0,1,122,68h13V429.132A16.907,16.907,0,0,0,152,446H390ZM416,432H152a2.894,2.894,0,0,1-3-2.868V40.6c0-1.654,1.346-2.6,3-2.6H342V97.892A17.112,17.112,0,0,0,359,115h60V429.132A2.894,2.894,0,0,1,416,432Z"/><path d="M385,146H182a7,7,0,0,0,0,14H385a7,7,0,0,0,0-14Z"/><path d="M385,186H182a7,7,0,0,0,0,14H385a7,7,0,0,0,0-14Z"/><path d="M385,227H182a7,7,0,0,0,0,14H385a7,7,0,0,0,0-14Z"/><path d="M385,268H182a7,7,0,0,0,0,14H385a7,7,0,0,0,0-14Z"/><path d="M323,308H182a7,7,0,0,0,0,14H323a7,7,0,0,0,0-14Z"/></svg>
